<svg xmlns="http://www.w3.org/2000/svg" viewBox="0 0 145 145"><defs><style>.cls-1{fill:#e5f1fa;}</style></defs><g id="Layer_5" data-name="Layer 5"><path class="cls-1" d="M124.62,67.44,77.56,20.38,72.5,15.32l-5.06,5.06L20.38,67.44,15.32,72.5l5.06,5.06,47.06,47.06,5.06,5.06,5.06-5.06,47.06-47.06,5.06-5.06Zm-52.12-42L116,68.92H29Zm0,94.12L29,76.08h87Z"/><path class="cls-1" d="M93.18,49.07c-4.43-.88-11.27-1.84-14.31-1.28s-4,.9-4.31,1.56-1.51.7-2.06.72-1.71,0-2.06-.72-1.78-1-5-1.44c-3.65-.47-9.22.28-13.65,1.16a.67.67,0,0,0-.53.66,22.12,22.12,0,0,0,.34,3.41.66.66,0,0,0,.69.54l1.17-.07s.4,3,1,5.5c.64,2.71,2.44,3.41,6.7,3.36s6.16-.08,7.57-2.49,1.92-5.27,3.75-5.28,2.34,2.86,3.75,5.28,3.31,2.44,7.57,2.49,6.06-.65,6.7-3.36c.59-2.49,1-5.5,1-5.5l1.17.07a.66.66,0,0,0,.69-.54,20.68,20.68,0,0,0,.33-3.41A.65.65,0,0,0,93.18,49.07ZM68.45,57.58c-1.35,3.28-4.61,3.25-8.28,3.13s-3.82-1.61-4.37-3.6S54.23,51,56.88,50.23s6.71-.63,9.18-.35S70,51.2,69.94,52.33,69.81,54.29,68.45,57.58Zm20.75-.47c-.55,2-.7,3.49-4.37,3.6s-6.93.15-8.28-3.13-1.43-4.16-1.49-5.25,1.41-2.17,3.88-2.45,6.52-.45,9.18.35S89.74,55.12,89.2,57.11Z"/><path class="cls-1" d="M57.36,96.66V93a3.69,3.69,0,0,0,2.1-.6,2.79,2.79,0,0,0,1-1.61,16.06,16.06,0,0,0,.28-3.54A19.86,19.86,0,0,1,61,83.45a3.9,3.9,0,0,1,1-1.9,4.21,4.21,0,0,1,1.89-1.11A11.57,11.57,0,0,1,67,80.08h.81v3.68a4.92,4.92,0,0,0-2.59.42,2.23,2.23,0,0,0-.54,1.8,23.49,23.49,0,0,1-.52,6,5,5,0,0,1-2.36,2.83A5,5,0,0,1,64,97.11q.72,1.53.72,6.56a2.27,2.27,0,0,0,.36,1.55,2.06,2.06,0,0,0,.74.51,7.2,7.2,0,0,0,2,.17v3.66H67c-2.07,0-3.47-.25-4.21-.76a4.83,4.83,0,0,1-1.61-1.75,12.8,12.8,0,0,1-.5-4.62,16.66,16.66,0,0,0-.26-3.51,2.84,2.84,0,0,0-1-1.62A3.73,3.73,0,0,0,57.36,96.66Z"/><path class="cls-1" d="M87.64,93v3.68a3.69,3.69,0,0,0-2.1.6,2.79,2.79,0,0,0-1,1.61,15.52,15.52,0,0,0-.28,3.54,19.86,19.86,0,0,1-.25,3.78,4,4,0,0,1-1,1.91,4.29,4.29,0,0,1-1.89,1.1,11.57,11.57,0,0,1-3.22.36h-.81v-3.68a5.09,5.09,0,0,0,2.59-.41,2.25,2.25,0,0,0,.54-1.81,23.49,23.49,0,0,1,.52-6,5,5,0,0,1,2.36-2.83A5,5,0,0,1,81,92.53c-.48-1-.73-3.21-.73-6.56a2.3,2.3,0,0,0-.35-1.55,2.34,2.34,0,0,0-.74-.51,7.36,7.36,0,0,0-2-.16V80.08H78c2.07,0,3.47.25,4.21.76a4.86,4.86,0,0,1,1.61,1.76,12.93,12.93,0,0,1,.5,4.61,16.83,16.83,0,0,0,.26,3.52,2.84,2.84,0,0,0,1,1.61A3.65,3.65,0,0,0,87.64,93Z"/><path class="cls-1" d="M70.34,87.52h4.32v4H70.34Zm0,6.52h4.32v3.32a4.84,4.84,0,0,1-.77,2.89,6.23,6.23,0,0,1-2.6,1.88l-1-1.77a4.36,4.36,0,0,0,1.58-1.06A2.25,2.25,0,0,0,72.41,98H70.34Z"/></g></svg>