<svg xmlns="http://www.w3.org/2000/svg" viewBox="0 0 145 145"><defs><style>.cls-1{fill:#22313f;}</style></defs><g id="Layer_4" data-name="Layer 4"><path class="cls-1" d="M83.36,70.15a1.57,1.57,0,0,1,0,3.14h-1v1.57h-.69V70.15Zm0,2.47a.89.89,0,0,0,0-1.78h-1v1.78Z"/><path class="cls-1" d="M87.29,74.18h2.18v.68H86.6V70.15h2.87v.68H87.29v1.33h2.13v.68H87.29Z"/><path class="cls-1" d="M92.93,70.15a2.36,2.36,0,0,1,0,4.71H91.24V70.15Zm0,4a1.68,1.68,0,0,0,0-3.35h-1v3.35Z"/><path class="cls-1" d="M97.33,72.47H98.4a.82.82,0,1,0,0-1.63h-1v4h-.67V70.15H98.4a1.46,1.46,0,0,1,1.53,1.5,1.41,1.41,0,0,1-1.21,1.44l1.48,1.77h-.88l-1.71-1.77h-.28Z"/><path class="cls-1" d="M102,70.8a2.39,2.39,0,0,1,3.4,0,2.43,2.43,0,0,1,0,3.41,2.39,2.39,0,0,1-3.4,0,2.43,2.43,0,0,1,0-3.41Zm2.91.49a1.69,1.69,0,0,0-1.21-.51,1.68,1.68,0,0,0-1.21.51,1.73,1.73,0,0,0,0,2.43,1.68,1.68,0,0,0,1.21.51,1.73,1.73,0,0,0,1.21-2.94Z"/><path class="cls-1" d="M112.54,70.82a2.29,2.29,0,0,1,1.63-.7,2.21,2.21,0,0,1,2.19,1.74h-.67a1.53,1.53,0,0,0-1.52-1.06,1.61,1.61,0,0,0-1.16.5,1.75,1.75,0,0,0,0,2.41,1.63,1.63,0,0,0,2.72-.62h.66a2.27,2.27,0,0,1-2.22,1.8,2.25,2.25,0,0,1-1.63-.7,2.45,2.45,0,0,1,0-3.37Z"/><path class="cls-1" d="M118.24,72.47h1.08a.82.82,0,1,0,0-1.63h-1v4h-.67V70.15h1.72a1.46,1.46,0,0,1,1.53,1.5,1.41,1.41,0,0,1-1.22,1.44l1.49,1.77h-.88l-1.72-1.77h-.27Z"/><path class="cls-1" d="M122.85,73.42V70.13h.69v3.3c0,.51.56.77,1,.77s1-.26,1-.78V70.13h.69v3.3a1.77,1.77,0,0,1-3.48,0Z"/><path class="cls-1" d="M128.19,70.15H132l-3.09,4.09h2.63v.61h-4l3.09-4.08h-2.51Z"/><path class="cls-1" d="M134.13,67.84v9.32H79.54V67.84h54.59M137,65H76.68V80H137V65Z"/><path class="cls-1" d="M66,69.82l-25-25-2.68-2.69-2.69,2.69-25,25L8,72.5l2.68,2.68,25,25,2.69,2.69L41,100.15l25-25,2.69-2.68ZM38.34,47.53,61.41,70.6H15.27Zm0,49.94L15.27,74.4H61.41Z"/><path class="cls-1" d="M49.31,60.07c-2.35-.47-6-1-7.59-.68s-2.1.48-2.29.83-.8.37-1.09.38-.91,0-1.09-.38-1-.54-2.64-.76a25.83,25.83,0,0,0-7.24.61.34.34,0,0,0-.28.35,12.44,12.44,0,0,0,.17,1.81.37.37,0,0,0,.37.29l.62,0s.21,1.6.53,2.92,1.29,1.8,3.55,1.78,3.27,0,4-1.32,1-2.8,2-2.8,1.24,1.52,2,2.8,1.75,1.29,4,1.32,3.22-.35,3.56-1.78.52-2.92.52-2.92l.63,0a.36.36,0,0,0,.36-.29,11.4,11.4,0,0,0,.18-1.81A.36.36,0,0,0,49.31,60.07ZM36.19,64.58c-.72,1.75-2.45,1.73-4.39,1.67s-2-.86-2.32-1.91-.83-3.23.57-3.65a13.86,13.86,0,0,1,4.87-.19c1.31.15,2.09.7,2.06,1.3A7.19,7.19,0,0,1,36.19,64.58Zm11-.24c-.29,1-.37,1.84-2.32,1.91s-3.68.08-4.4-1.67a7.29,7.29,0,0,1-.78-2.78c0-.6.74-1.15,2-1.3a13.85,13.85,0,0,1,4.87.19C48,61.11,47.49,63.28,47.2,64.34Z"/><path class="cls-1" d="M30.3,85.32V83.37a2,2,0,0,0,1.12-.32,1.52,1.52,0,0,0,.52-.86,8.21,8.21,0,0,0,.15-1.88,10.53,10.53,0,0,1,.13-2,2.06,2.06,0,0,1,.51-1,2.3,2.3,0,0,1,1-.59,6.4,6.4,0,0,1,1.71-.19h.43v2a2.67,2.67,0,0,0-1.37.22c-.2.15-.29.47-.29,1a12.22,12.22,0,0,1-.28,3.19,2.62,2.62,0,0,1-1.25,1.5,2.65,2.65,0,0,1,1.14,1.22A10,10,0,0,1,34.2,89a1.21,1.21,0,0,0,.19.82,1.37,1.37,0,0,0,.39.27,3.76,3.76,0,0,0,1.09.09v1.94h-.43a4.25,4.25,0,0,1-2.23-.4,2.6,2.6,0,0,1-.86-.93,7.09,7.09,0,0,1-.26-2.45A9,9,0,0,0,32,86.51a1.48,1.48,0,0,0-.52-.85A2,2,0,0,0,30.3,85.32Z"/><path class="cls-1" d="M46.37,83.37v1.95a2,2,0,0,0-1.11.32,1.44,1.44,0,0,0-.52.85,8.27,8.27,0,0,0-.15,1.88,10.33,10.33,0,0,1-.14,2,2,2,0,0,1-.5,1,2.32,2.32,0,0,1-1,.58,6,6,0,0,1-1.7.19H40.8v-2A2.63,2.63,0,0,0,42.18,90a1.21,1.21,0,0,0,.28-1,12.74,12.74,0,0,1,.28-3.19A2.66,2.66,0,0,1,44,84.34a2.66,2.66,0,0,1-1.13-1.21,9.71,9.71,0,0,1-.39-3.48,1.29,1.29,0,0,0-.18-.83,1.41,1.41,0,0,0-.4-.27,3.91,3.91,0,0,0-1.09-.08v-2h.44a4.38,4.38,0,0,1,2.23.4,2.51,2.51,0,0,1,.85.94,6.73,6.73,0,0,1,.27,2.45,8.91,8.91,0,0,0,.14,1.86,1.52,1.52,0,0,0,.51.86A2,2,0,0,0,46.37,83.37Z"/><path class="cls-1" d="M37.19,80.47h2.29v2.14H37.19Zm0,3.46h2.29v1.76a2.55,2.55,0,0,1-.4,1.53,3.26,3.26,0,0,1-1.39,1l-.5-.94a2.46,2.46,0,0,0,.84-.56,1.2,1.2,0,0,0,.26-.67h-1.1Z"/></g></svg>
