<svg id="Layer_1" data-name="Layer 1" xmlns="http://www.w3.org/2000/svg" viewBox="0 0 145 145"><defs><style>.cls-1{fill:#22313f;}</style></defs><path class="cls-1" d="M124.29,53.15,77.22,6.09,72.16,1,67.1,6.09,20,53.15,15,58.22,20,63.27,67.1,110.34l5.06,5.06,5.06-5.06,47.07-47.07,5.06-5.05Zm-52.13-42,43.49,43.49h-87Zm0,94.13L28.68,61.79h87Z"/><path class="cls-1" d="M35,127.89a2.45,2.45,0,0,1,0,4.9H33.33v2.45H32.26v-7.35Zm0,3.85A1.39,1.39,0,0,0,35,129H33.33v2.78Z"/><path class="cls-1" d="M41.07,134.17h3.41v1.06H40V127.9h4.47V129h-3.4V131H44.4v1.07H41.07Z"/><path class="cls-1" d="M49.87,127.9a3.67,3.67,0,0,1,0,7.33H47.24V127.9Zm0,6.27a2.61,2.61,0,0,0,0-5.21H48.3v5.21Z"/><path class="cls-1" d="M56.74,131.51h1.67a1.28,1.28,0,1,0,0-2.55H56.78v6.28H55.73v-7.35h2.68a2.27,2.27,0,0,1,2.39,2.34,2.21,2.21,0,0,1-1.9,2.25l2.32,2.76H59.85l-2.68-2.76h-.43Z"/><path class="cls-1" d="M64,128.91a3.71,3.71,0,0,1,2.64-1.11,3.77,3.77,0,0,1,2.66,1.11,3.78,3.78,0,0,1,0,5.31,3.73,3.73,0,0,1-2.66,1.11A3.67,3.67,0,0,1,64,134.22a3.78,3.78,0,0,1,0-5.31Zm4.54.75a2.69,2.69,0,0,0-1.9-.79,2.66,2.66,0,0,0-1.88.79,2.71,2.71,0,0,0-.78,1.9,2.67,2.67,0,0,0,.78,1.9,2.63,2.63,0,0,0,1.88.8,2.66,2.66,0,0,0,1.9-.8,2.7,2.7,0,0,0,.78-1.9A2.73,2.73,0,0,0,68.49,129.66Z"/><path class="cls-1" d="M80.47,128.94A3.54,3.54,0,0,1,83,127.85a3.44,3.44,0,0,1,3.42,2.71H85.38A2.38,2.38,0,0,0,83,128.9a2.47,2.47,0,0,0-1.81.79,2.72,2.72,0,0,0,0,3.75,2.47,2.47,0,0,0,1.81.79,2.5,2.5,0,0,0,2.43-1.75h1a3.55,3.55,0,0,1-3.47,2.8,3.5,3.5,0,0,1-2.54-1.09,3.81,3.81,0,0,1,0-5.25Z"/><path class="cls-1" d="M89.37,131.51H91A1.28,1.28,0,1,0,91,129H89.42v6.28h-1v-7.35H91a2.27,2.27,0,0,1,2.39,2.34,2.21,2.21,0,0,1-1.89,2.25l2.31,2.76H92.48l-2.68-2.76h-.42Z"/><path class="cls-1" d="M96.56,133v-5.13h1.07V133c0,.81.87,1.21,1.65,1.21s1.63-.41,1.63-1.22v-5.13H102V133a2.75,2.75,0,0,1-5.42,0Z"/><path class="cls-1" d="M104.88,127.9h6l-4.82,6.39h4.09v.94H104l4.83-6.37h-3.93Z"/><path class="cls-1" d="M114.16,124.29v14.54H29V124.29h85.17m4.47-4.48H24.51V143.3h94.12V119.81Z"/><path class="cls-1" d="M92.84,34.79C88.41,33.9,81.57,33,78.53,33.5s-4,.9-4.31,1.57-1.51.69-2.06.72-1.7-.06-2.06-.72-1.78-1-5-1.44c-3.65-.47-9.21.27-13.65,1.16a.64.64,0,0,0-.52.65,21.75,21.75,0,0,0,.33,3.41.65.65,0,0,0,.69.54l1.17-.07s.4,3,1,5.5c.64,2.71,2.44,3.41,6.7,3.37s6.17-.09,7.58-2.5,1.91-5.27,3.74-5.27,2.34,2.86,3.75,5.27,3.31,2.45,7.57,2.5,6.07-.66,6.7-3.37c.59-2.48,1-5.5,1-5.5l1.18.07a.67.67,0,0,0,.69-.54,23.05,23.05,0,0,0,.33-3.41A.66.66,0,0,0,92.84,34.79Zm-24.72,8.5c-1.36,3.29-4.62,3.25-8.29,3.14S56,44.82,55.46,42.82s-1.57-6.07,1.09-6.88,6.7-.63,9.17-.35S69.66,36.92,69.6,38,69.47,40,68.12,43.29Zm20.74-.47c-.55,2-.7,3.49-4.37,3.61s-6.92.15-8.28-3.14S74.78,39.14,74.72,38s1.41-2.16,3.88-2.45,6.53-.45,9.18.35S89.41,40.83,88.86,42.82Z"/><path class="cls-1" d="M57,82.38V78.69a3.78,3.78,0,0,0,2.1-.59,2.82,2.82,0,0,0,1-1.62,15.4,15.4,0,0,0,.28-3.54,19.67,19.67,0,0,1,.25-3.77,3.89,3.89,0,0,1,1-1.91,4.19,4.19,0,0,1,1.9-1.11,11.44,11.44,0,0,1,3.21-.36h.81v3.68a5,5,0,0,0-2.59.42,2.25,2.25,0,0,0-.54,1.81,23.46,23.46,0,0,1-.52,6,5,5,0,0,1-2.36,2.83,5,5,0,0,1,2.14,2.3c.48,1,.73,3.2.73,6.56a2.27,2.27,0,0,0,.35,1.54,2.23,2.23,0,0,0,.74.52,7.36,7.36,0,0,0,2.05.16v3.67H66.7c-2.07,0-3.47-.26-4.2-.76a4.76,4.76,0,0,1-1.61-1.76,12.64,12.64,0,0,1-.51-4.62,16.79,16.79,0,0,0-.26-3.51,2.9,2.9,0,0,0-1-1.62A3.73,3.73,0,0,0,57,82.38Z"/><path class="cls-1" d="M87.3,78.69v3.69a3.78,3.78,0,0,0-2.1.59,2.88,2.88,0,0,0-1,1.61A16.32,16.32,0,0,0,84,88.13a19.54,19.54,0,0,1-.26,3.77,3.94,3.94,0,0,1-1,1.91,4.21,4.21,0,0,1-1.89,1.11,11.44,11.44,0,0,1-3.21.36h-.82V91.59a5,5,0,0,0,2.6-.41,2.29,2.29,0,0,0,.53-1.81,23.93,23.93,0,0,1,.52-6,5,5,0,0,1,2.37-2.83,5,5,0,0,1-2.14-2.3c-.49-1-.73-3.2-.73-6.56a2.26,2.26,0,0,0-.36-1.54,2.23,2.23,0,0,0-.74-.52,7.31,7.31,0,0,0-2-.16V65.79h.82a8.12,8.12,0,0,1,4.2.76,4.86,4.86,0,0,1,1.61,1.76A12.64,12.64,0,0,1,84,72.93a16.12,16.12,0,0,0,.26,3.51,2.89,2.89,0,0,0,1,1.62A3.76,3.76,0,0,0,87.3,78.69Z"/><path class="cls-1" d="M70,73.23h4.31v4H70Zm0,6.52h4.31v3.32a4.87,4.87,0,0,1-.77,2.9A6.17,6.17,0,0,1,71,87.84L70,86.08A4.69,4.69,0,0,0,71.59,85a2.26,2.26,0,0,0,.48-1.25H70Z"/></svg>